# xmcd
#
# Track frame offsets:
#	150
#	12695
#	24744
#	34167
#	46656
#	58383
#	70769
#	82247
#	93451
#	103006
#	116851
#	129006
#	139857
#	150183
#	159630
#	169648
#	181519
#	194069
#	205645
#	215705
#	227599
#	238965
#	249194
#
# Disc length: 3596 seconds
#
# Revision: 0
# Processed by: cddbd v1.5.2PL0 Copyright (c) Steve Scherf et al.
# Submitted via: EasyCDDAExtractor 10.5.1.1
#
DISCID=3f0e0a17
DTITLE=The Stanley Brothers - Sing the Songs of Bill Monroe
DYEAR=1900
DGENRE=Country
TTITLE0=Six Months Ain't Long
TTITLE1=Lover's Quarrel
TTITLE2=Stoney Creek
TTITLE3=Mother's Only Sleeping
TTITLE4=How Beautiful Heaven Must Be
TTITLE5=No Letter Today
TTITLE6=Little Joe
TTITLE7=Working On A Building
TTITLE8=Jenny Lynn
TTITLE9=I'll Meet You In Church Sunday Morning
TTITLE10=This Wicked Path Of Sin
TTITLE11=Weeping Willow
TTITLE12=Pretty Little Miss In The Garden
TTITLE13=Midnight Ramble
TTITLE14=I Saw The Light
TTITLE15=Will The Circle Be Unbroken
TTITLE16=Little Maggie
TTITLE17=What About You
TTITLE18=Back Up And Push
TTITLE19=Pass Me Not
TTITLE20=Over In The Gloryland
TTITLE21=Somebody Touched Me
TTITLE22=Hills Of Roan County
EXTD=
EXTT0=
EXTT1=
EXTT2=
EXTT3=
EXTT4=
EXTT5=
EXTT6=
EXTT7=
EXTT8=
EXTT9=
EXTT10=
EXTT11=
EXTT12=
EXTT13=
EXTT14=
EXTT15=
EXTT16=
EXTT17=
EXTT18=
EXTT19=
EXTT20=
EXTT21=
EXTT22=
PLAYORDER=
